<?xml version="1.0" encoding="UTF-8"?>
<svg id="Layer_2" data-name="Layer 2" xmlns="http://www.w3.org/2000/svg" viewBox="0 0 1229.33 354.78">
  <defs>
    <style>
      .cls-1 {
        fill: none;
        stroke: #164b60;
        stroke-miterlimit: 10;
        stroke-width: 4px;
      }

      .cls-2 {
        fill: #164b60;
      }
    </style>
  </defs>
  <g id="Layer_1-2" data-name="Layer 1">
    <g id="CUSTOM-Group">
      <path class="cls-1" d="M301.41,53.37C268.29,20.24,224.24,2,177.39,2S86.5,20.24,53.37,53.37C20.24,86.5,2,130.54,2,177.39s18.24,90.89,51.37,124.02c33.13,33.13,77.17,51.37,124.02,51.37s90.89-18.24,124.02-51.37c33.13-33.13,51.37-77.17,51.37-124.02s-18.24-90.89-51.37-124.02Zm-26.61,158.55c0,5-4.07,9.06-9.06,9.06s-9.06-4.06-9.06-9.06,4.07-9.06,9.06-9.06,9.06,4.06,9.06,9.06ZM79.98,142.86c0-5,4.07-9.06,9.06-9.06s9.06,4.06,9.06,9.06-4.07,9.06-9.06,9.06-9.06-4.07-9.06-9.06Zm215.93,134.05v-20.87c0-5.68-4.6-10.28-10.28-10.28s-10.28,4.6-10.28,10.28v41.16c-4,3.27-8.16,6.35-12.47,9.21v-36.67c0-5.67-4.6-10.28-10.28-10.28s-10.28,4.6-10.28,10.28v48.18c-7.03,3.26-14.35,6.02-21.9,8.21V148.24h26.51c3.54,12.39,14.96,21.48,28.47,21.48,16.33,0,29.61-13.28,29.61-29.61s-13.28-29.61-29.61-29.61c-11.89,0-22.16,7.05-26.87,17.19h-38.38c-5.68,0-10.28,4.6-10.28,10.28v192.62c-7.34,1.07-14.85,1.64-22.48,1.64-85.38,0-154.84-69.46-154.84-154.84,0-8.25,.66-16.35,1.9-24.25H61.27c4.19,11.28,15.06,19.34,27.77,19.34,16.33,0,29.61-13.28,29.61-29.61s-13.28-29.61-29.61-29.61c-12.71,0-23.58,8.06-27.77,19.34H29.17c6.15-20.31,16.37-38.86,29.7-54.72v13.16c0,5.67,4.6,10.28,10.28,10.28s10.28-4.6,10.28-10.28V57.57c4-3.27,8.16-6.34,12.47-9.21v28.95c0,5.68,4.6,10.28,10.28,10.28s10.28-4.6,10.28-10.28V36.85c6.29-2.92,12.81-5.43,19.52-7.5V209.66h-24.83c-4.19-11.28-15.05-19.34-27.77-19.34-16.33,0-29.61,13.28-29.61,29.61s13.28,29.61,29.61,29.61c12.72,0,23.59-8.06,27.77-19.34h35.1c5.68,0,10.28-4.6,10.28-10.28V24.56c8.1-1.31,16.4-2.01,24.87-2.01,85.38,0,154.84,69.46,154.84,154.84,0,8.25-.66,16.35-1.9,24.25h-36.81c-4.19-11.28-15.06-19.34-27.77-19.34-16.33,0-29.61,13.28-29.61,29.61s13.28,29.61,29.61,29.61c12.72,0,23.58-8.06,27.77-19.34h32.1c-6.15,20.31-16.37,38.86-29.7,54.72Zm-20.5-145.86c5,0,9.06,4.07,9.06,9.06s-4.07,9.06-9.06,9.06-9.06-4.06-9.06-9.06,4.07-9.06,9.06-9.06ZM88.44,219.93c0,5-4.07,9.06-9.06,9.06s-9.06-4.06-9.06-9.06,4.07-9.06,9.06-9.06,9.06,4.07,9.06,9.06Z"/>
      <path class="cls-1" d="M230.41,37.63c-16.33,0-29.62,13.28-29.62,29.61,0,3.48,.61,6.81,1.71,9.91l-32.9,27.48c-2.34,1.95-3.69,4.84-3.69,7.89V242.94l-14.1,7.62c-5.22-4.59-12.05-7.38-19.53-7.38-16.33,0-29.61,13.28-29.61,29.61s13.28,29.61,29.61,29.61,29.61-13.29,29.61-29.61c0-1.41-.1-2.8-.3-4.16l19.48-10.53c3.32-1.79,5.39-5.27,5.39-9.04V117.33l29.22-24.4c4.34,2.49,9.36,3.93,14.72,3.93,16.33,0,29.61-13.28,29.61-29.61,0-16.33-13.28-29.61-29.61-29.61Zm-107.18,235.16c0-5,4.07-9.06,9.06-9.06s9.06,4.06,9.06,9.06-4.06,9.06-9.06,9.06-9.06-4.07-9.06-9.06ZM221.35,67.24c0-5,4.07-9.06,9.06-9.06s9.06,4.06,9.06,9.06-4.07,9.06-9.06,9.06-9.06-4.07-9.06-9.06Z"/>
    </g>
    <path class="cls-1" d="M393.2,225.89s-24.12-27.22-21.21-97.02c-.16-7.33,.34-18.78,4.27-31.99,3.65-12.24,12.22-41.04,36.44-49.44,14.65-5.08,28.53-.44,29.81,0,7.76,2.71,12.68,6.93,16.08,9.91,17.78,15.56,20.98,37.02,21.63,42.46,.59,4.99,.83,11.81-.55,19.88-.04,.26-.27,.45-.53,.45h-31.38c-2.75,0-4.95-2.31-4.78-5.06,.61-10.17,.23-32.48-14.28-36.38,0,0-18.17-2.91-18.17,37.08v93.09c.06,2.42,.62,13.82,9.85,22.61,1.8,1.71,8.65,8.03,19.22,8.51,11.16,.51,18.84-5.84,21.68-8.19,6.93-5.72,9.91-12.69,11.68-16.82,1.54-3.59,2.49-6.94,3.5-11.91,1.44-7.08,3-17.46,3.13-30.77,0-.29-.23-.54-.53-.55l-31.38-.61c-2.81-.06-5.14,2.12-5.36,4.92-.81,10.61,.28,20.86-.79,31.53"/>
    <path class="cls-1" d="M735.93,225.86s-24.12-27.22-21.21-97.02c-.16-7.33,.34-18.78,4.27-31.99,3.65-12.24,12.22-41.04,36.44-49.44,14.65-5.08,28.53-.44,29.81,0,7.76,2.71,12.68,6.93,16.08,9.91,17.78,15.56,20.98,37.02,21.63,42.46,.59,4.99,.83,11.81-.55,19.88-.04,.26-.27,.45-.53,.45h-31.38c-2.75,0-4.95-2.31-4.78-5.06,.61-10.17,.23-32.48-14.28-36.38,0,0-18.17-2.91-18.17,37.08v93.09c.06,2.42,.62,13.82,9.85,22.61,1.8,1.71,8.65,8.03,19.22,8.51,11.16,.51,18.84-5.84,21.68-8.19,6.93-5.72,9.91-12.69,11.68-16.82,1.54-3.59,2.49-6.94,3.5-11.91,1.44-7.08,3-17.46,3.13-30.77,0-.29-.23-.54-.53-.55l-31.38-.61c-2.81-.06-5.14,2.12-5.36,4.92-.81,10.61,.28,20.86-.79,31.53"/>
    <path class="cls-1" d="M513.17,73.84v-23.27c0-.29,.24-.53,.53-.53h35.54c.29,0,.53,.24,.53,.53V239.69c0,.29-.24,.53-.53,.53h-35.54c-.29,0-.53-.24-.53-.53-.33-43.77-.67-87.55-1-131.32-.13-3.05,.64-5.19,1.31-6.51,3.08-6.07,11.45-9.29,20.99-8.06"/>
    <path class="cls-1" d="M586.61,121.13V50.57c0-.28,.2-.51,.48-.53,11.32-.77,33.45-2.06,50.85-1.27,2.2,.1,5.6,.29,9.9,1.3,0,0,12.82,3.02,23.52,12.53,17.83,15.86,18.74,41.59,18.81,44.98-.13,4.72-.65,11.26-2.4,18.87-.43,1.89-1.46,6.33-3.16,10.81-2,5.27-6.33,14.34-16.14,23.79,11.94,38.85,20.57,67.16,22.12,72.14,.27,.88,1.06,3.35-.17,5.06-1.01,1.41-2.98,1.76-4.57,1.8-10.98,.06-21.96,.12-32.94,.19-.25,0-.46-.17-.52-.4-5.61-22.43-11.22-44.86-16.82-67.29-.61-2.46-2.82-4.18-5.36-4.18h-7.59c-.78,0-1.41,.63-1.41,1.41v69.94c0,.29-.24,.53-.53,.53h-33.55c-.29,0-.53-.24-.53-.53-.19-30.03-.39-60.06-.59-90.08,.03-.79,.15-1.94,.59-3.25,0,0,.75-2.26,2.58-4.32,1.03-1.16,6.54-4.96,24.04-4.32,4.31,.16,7.19,.5,12.56,.22,5.02-.26,7.55-.82,9.96-1.85,.58-.25,3.82-1.65,6.75-4.45,6.82-6.51,7.37-16.09,7.85-24.38,.39-6.88-.56-10.78-1.18-12.8-.56-1.85-1.57-5.41-3.75-7.9-6.9-7.89-21.46-4.44-22.88-4.08-.22,11.76-.44,23.52-.67,35.27"/>
    <path class="cls-1" d="M896.41,182.98V50.56c0-.29-.24-.53-.53-.53h-34.87c-.29,0-.53,.24-.53,.53V195.63s.67,9.47,12.65,9.47h59.88c1.87,0,3.22,.74,4.19,1.67,1.15,1.1,1.59,2.54,1.77,3.7,.02,9.74,.03,19.48,.05,29.22,0,.29-.24,.53-.53,.53h-78"/>
    <path class="cls-1" d="M969.73,145.13V50.56c0-.29,.24-.53,.53-.53h92.11c.29,0,.53,.24,.53,.53v28.45c-.06,.53-.36,2.64-2.19,4.33-1.9,1.74-4.12,1.81-4.63,1.81h-49.08c.22,14.2,.44,28.4,.66,42.6h36.43c.23,0,2.05,.02,3.28,1.53,1.1,1.35,.93,2.89,.89,3.16v26.04c0,.3-.25,.54-.55,.53-32.39-.78-56.15-.98-61.13-.59-1.22,.09-2.89,.33-4.79,.94-1.03,.33-4.75,1.61-7.48,4.21-5.25,5.02-4.69,12.91-4.59,14.13v61.99c0,.29,.24,.53,.53,.53h92.11c.29,0,.53-.24,.53-.53v-28.8c0-.37,.01-2.45-1.64-4.12-1.74-1.75-3.94-1.68-4.29-1.67h-50.1c-.29,0-.53-.24-.53-.53v-24.25"/>
    <path class="cls-1" d="M1210.99,131.09c1.37-1.12,3.24-2.86,4.99-5.32,2.08-2.93,3.64-6.39,4.99-13.31,1.1-5.63,2.66-14.04,1.15-25.31-.8-5.96-1.37-10.19-3.73-15.16-8.12-17.14-27.47-22.01-30.03-22.61-3.56-.83-11.58-2.6-21.3,0-17.4,4.65-25.53,19.36-27.23,22.42-5.34,9.66-6.09,18.96-6.05,24.3,0,.23,.16,.43,.38,.5,7.1,2.19,14.2,4.37,21.31,6.56,.2,.06,1.56,.47,2.88-.36,1.45-.91,1.6-2.53,1.61-2.7,.25-1.97,.77-4.51,1.95-7.28,1.02-2.41,4.63-10.92,11.15-11.65,1.78-.2,3.32,.23,4.39,.67,0,0,11.58,2,11.58,19.3l-.66,16.64s1.31,13.13-25.42,13.31c-.29,0-.54,.24-.54,.53v18.91c0,.29,.24,.53,.53,.53h34.74c3.16,.28,8.55,1.19,13.98,4.66,9.73,6.22,12.68,16.24,13.97,20.63,3.16,10.73,1.15,19.76,0,24.63-.75,3.17-2.43,10.01-7.4,17.3-11.66,17.08-30.55,20.7-33.86,21.3-3.23,.59-9.75,1.7-17.97,0,0,0-9.48-1.96-17.83-8.09-18.59-13.66-19.43-43.02-19.44-47.34,0-.27,.2-.49,.47-.52,8.15-.9,16.3-1.81,24.44-2.71,.2-.06,1.85-.52,3.33,.55,1.66,1.2,1.57,3.21,1.56,3.34-.63,8.35,2.61,15.92,8.61,19.38,2.88,1.66,5.83,2.05,8.01,2.06h4.28s10.99-.37,10.99-15.83c0-5.01,1.07-12.26-.19-21.23"/>
    <path class="cls-2" d="M378.5,309.78v-46.81h6.21v46.81h-6.21Z"/>
    <path class="cls-2" d="M431.46,309.78v-46.81h5.04l10.69,28.94,.14-.06v-28.88h5.71v46.81h-5.04l-10.69-29.15h-.14s0,29.15,0,29.15h-5.71Z"/>
    <path class="cls-2" d="M503.93,309.78v-46.81h5.04l10.69,28.94,.14-.06v-28.88h5.71v46.81h-5.04l-10.69-29.15h-.14s0,29.15,0,29.15h-5.71Z"/>
    <path class="cls-2" d="M583.52,310.39c-3.81,0-6.91-2.14-9.31-6.42-2.4-4.28-3.6-10.15-3.6-17.61,0-7.05,1.13-12.82,3.4-17.3,2.27-4.48,5.44-6.72,9.5-6.72s7.09,2.24,9.43,6.71c2.34,4.47,3.51,10.24,3.51,17.32,0,7.53-1.23,13.41-3.7,17.66-2.47,4.24-5.55,6.37-9.24,6.37Zm-.07-42.43c-2.05,0-3.62,1.63-4.71,4.9-1.09,3.27-1.64,7.77-1.64,13.51s.56,10.5,1.69,13.66,2.73,4.75,4.8,4.75,3.53-1.62,4.67-4.85c1.14-3.23,1.71-7.75,1.71-13.56s-.58-10.44-1.73-13.63c-1.15-3.19-2.75-4.78-4.8-4.78Z"/>
    <path class="cls-2" d="M648,310.39l-8.93-47.43h6.52l4.57,31.55,4.5-31.55h6.49l-8.93,47.43h-4.21Z"/>
    <path class="cls-2" d="M698.1,309.78l9.1-47.09h6.45l9.03,47.09h-5.99l-1.73-10.37h-8.96l-1.9,10.37h-6Zm8.82-15.98h6.95l-3.39-19.61h-.18l-3.39,19.61Z"/>
    <path class="cls-2" d="M770.86,309.78v-41.2h-7.41v-5.61h21.02v5.61h-7.41v41.2h-6.21Z"/>
    <path class="cls-2" d="M832.75,309.78v-46.81h6.21v46.81h-6.21Z"/>
    <path class="cls-2" d="M898.78,310.39c-3.81,0-6.91-2.14-9.31-6.42-2.4-4.28-3.6-10.15-3.6-17.61,0-7.05,1.13-12.82,3.4-17.3,2.27-4.48,5.44-6.72,9.5-6.72s7.09,2.24,9.43,6.71c2.34,4.47,3.51,10.24,3.51,17.32,0,7.53-1.23,13.41-3.7,17.66-2.47,4.24-5.55,6.37-9.24,6.37Zm-.07-42.43c-2.05,0-3.62,1.63-4.71,4.9-1.09,3.27-1.64,7.77-1.64,13.51s.56,10.5,1.69,13.66,2.73,4.75,4.8,4.75,3.53-1.62,4.67-4.85c1.14-3.23,1.71-7.75,1.71-13.56s-.58-10.44-1.73-13.63c-1.15-3.19-2.75-4.78-4.8-4.78Z"/>
    <path class="cls-2" d="M959.76,309.78v-46.81h5.04l10.69,28.94,.14-.06v-28.88h5.71v46.81h-5.04l-10.69-29.15h-.14s0,29.15,0,29.15h-5.71Z"/>
    <path class="cls-2" d="M1054.99,309.78v-46.81h6.21v41.2h11.92v5.61h-18.13Z"/>
    <path class="cls-2" d="M1124.31,309.78l9.1-47.09h6.45l9.03,47.09h-5.99l-1.73-10.37h-8.96l-1.9,10.37h-6Zm8.82-15.98h6.95l-3.39-19.61h-.18l-3.39,19.61Z"/>
    <path class="cls-2" d="M1202.17,309.78v-46.81h7.37c3.64,0,6.67,1.14,9.08,3.42s3.62,5,3.62,8.15c0,4.22-2.09,7.59-6.28,10.1,4.91,2.24,7.37,6.11,7.37,11.63,0,3.99-1.33,7.24-3.99,9.75-2.66,2.51-6.43,3.76-11.32,3.76h-5.85Zm6.21-26.97h.56c2.16,0,3.88-.66,5.17-1.98,1.28-1.32,1.92-3.09,1.92-5.3s-.62-3.92-1.85-5.13c-1.23-1.21-2.98-1.81-5.24-1.81h-.56v14.24Zm0,21.35h1.09c2.4,0,4.27-.68,5.63-2.03,1.35-1.35,2.03-3.24,2.03-5.65s-.66-4.33-1.99-5.82c-1.33-1.49-3.22-2.24-5.66-2.24h-1.09v15.74Z"/>
  </g>
</svg>